<?xml version="1.0" encoding="UTF-8"?>
<svg version="1.1" xmlns="http://www.w3.org/2000/svg" width="450" height="469">
<path d="M0 0 C148.5 0 297 0 450 0 C450 154.77 450 309.54 450 469 C301.5 469 153 469 0 469 C0 314.23 0 159.46 0 0 Z " fill="#FFFEFE" transform="translate(0,0)"/>
<path d="M0 0 C0.66 0 1.32 0 2 0 C10.1698868 15.69032806 18.25015336 31.41624019 26.11816406 47.26025391 C29.79344368 54.64364706 33.55543558 61.9697089 37.51318359 69.20605469 C40 73.79506631 40 73.79506631 40 76 C47.37229676 77.7311808 51.08567255 76.01145745 57.4375 72.1875 C58.29843262 71.69209717 59.15936523 71.19669434 60.04638672 70.6862793 C62.71113442 69.14606589 65.35685803 67.57695531 68 66 C70.45618474 64.54765547 72.9133808 63.09704781 75.37133789 61.64770508 C76.84993383 60.77169585 78.32455082 59.88892816 79.79467773 58.9987793 C84.78693942 56 84.78693942 56 87 56 C85.019561 69.43323334 82.55034476 82.72928951 79.84207153 96.03372192 C78.72243125 101.53514433 77.61638286 107.03930715 76.5078125 112.54296875 C76.1810125 114.16240639 76.1810125 114.16240639 75.84761047 115.81455994 C73.14929608 129.19403538 70.5413612 142.58980094 68 156 C67.82355957 156.92006836 67.64711914 157.84013672 67.46533203 158.78808594 C67.01036459 161.16978864 66.56522138 163.55303437 66.125 165.9375 C65.90070313 167.14277344 65.67640625 168.34804687 65.4453125 169.58984375 C64.39915551 176.50202039 64.39915551 176.50202039 66.125 183 C69.13298646 184.60425945 70.60848586 184.63990833 74 184 C80.22288579 179.98787626 85.0407673 173.81885052 89.95703125 168.36328125 C93.20027734 164.76522213 96.50277036 161.22434541 99.8125 157.6875 C100.68346313 156.75490356 100.68346313 156.75490356 101.57202148 155.8034668 C104.67550137 152.48113815 107.78460183 149.16418668 110.8984375 145.8515625 C111.85012817 144.83703003 111.85012817 144.83703003 112.82104492 143.80200195 C114.03567657 142.50729517 115.25190339 141.21408244 116.4699707 139.92260742 C118.70837615 137.53469078 120.83826425 135.22171723 122.76953125 132.57421875 C123.37861328 131.79498047 123.37861328 131.79498047 124 131 C124.66 131 125.32 131 126 131 C126.38333496 131.90355225 126.76666992 132.80710449 127.16162109 133.73803711 C128.58252627 137.08237645 130.01209216 140.42295383 131.44433594 143.76245117 C132.06357785 145.20967734 132.68045074 146.65791952 133.29492188 148.10717773 C134.1774133 150.18743776 135.06829703 152.26392214 135.9609375 154.33984375 C136.23497406 154.99089584 136.50901062 155.64194794 136.79135132 156.31272888 C138.14163542 159.80837471 138.14163542 159.80837471 141 162 C149.49470755 162.61001651 157.45174329 160.64625271 165.6875 158.8125 C167.15690021 158.49265572 168.62646572 158.17356994 170.09619141 157.85522461 C179.60999282 155.78607505 189.11189618 153.65607345 198.58862305 151.4230957 C199.40242432 151.23320068 200.21622559 151.04330566 201.0546875 150.84765625 C201.75062012 150.68273682 202.44655273 150.51781738 203.16357422 150.34790039 C205 150 205 150 208 150 C205.54098344 163.61331847 200.06335085 176.9039609 195.65454102 189.99975586 C193.63017796 196.03100792 191.63266 202.06940699 189.71875 208.13671875 C189.39712891 209.15596436 189.07550781 210.17520996 188.74414062 211.2253418 C187.70860595 215.08651356 187.48563708 218.03205746 188 222 C190.27875435 224.97599571 193.17525845 226.18464004 196.54296875 227.69921875 C197.61611328 228.18583984 198.68925781 228.67246094 199.79492188 229.17382812 C200.91447266 229.67333984 202.03402344 230.17285156 203.1875 230.6875 C204.88422852 231.45416992 204.88422852 231.45416992 206.61523438 232.23632812 C209.40748649 233.49696516 212.20241914 234.75124406 215 236 C211.34355567 239.7449616 207.54300465 243.22819804 203.5625 246.625 C202.95124268 247.14787598 202.33998535 247.67075195 201.71020508 248.20947266 C197.05266481 252.16584575 192.2901316 255.9668694 187.46313477 259.71337891 C182.73708098 263.39087017 178.11053372 267.17900144 173.5 271 C168.38534591 275.23656506 163.24097743 279.42065912 158 283.5 C151.33933222 288.68776457 144.83117186 294.05113762 138.32421875 299.4296875 C134.04170782 302.96922492 129.74487779 306.49077493 125.4375 310 C124.80730957 310.51546387 124.17711914 311.03092773 123.52783203 311.56201172 C119.10500831 315.16045951 114.58307601 318.60835838 110 322 C107.38287714 319.63728605 105.82678251 317.16564147 104.13671875 314.08203125 C103.58693359 313.08751953 103.03714844 312.09300781 102.47070312 311.06835938 C101.88224609 309.99392578 101.29378906 308.91949219 100.6875 307.8125 C99.42239246 305.52633591 98.15541801 303.24120408 96.88671875 300.95703125 C96.56339569 300.37462677 96.24007263 299.79222229 95.9069519 299.19216919 C92.68916417 293.41141749 89.35391829 287.70246767 86 282 C80.62729374 272.85131044 75.40922456 263.62595038 70.25 254.35546875 C66.25035548 247.18646305 62.15651956 240.07907237 58 233 C52.62803207 223.85086711 47.40923475 214.62596869 42.25 205.35546875 C37.69383646 197.1889524 33.00036498 189.10969969 28.26538086 181.04589844 C23.35826992 172.66679455 18.59603378 164.21106546 13.88085938 155.72265625 C10.45173944 149.55600359 6.92988808 143.45862088 3.30053711 137.40722656 C2 135 2 135 2 133 C1.34 133 0.68 133 0 133 C-0.26844727 133.71051514 -0.53689453 134.42103027 -0.81347656 135.15307617 C-2.03361495 138.08065513 -3.44467689 140.77843329 -4.984375 143.55078125 C-5.58258057 144.62924316 -6.18078613 145.70770508 -6.79711914 146.81884766 C-7.44784652 147.9835286 -8.09881303 149.14807596 -8.75 150.3125 C-9.08224579 150.90891296 -9.41449158 151.50532593 -9.75680542 152.11981201 C-14.98748127 161.50807643 -20.35193058 170.81212493 -25.79785156 180.07739258 C-29.95737231 187.16833498 -34.00277194 194.31646265 -38 201.5 C-43.13625165 210.72934771 -48.40212624 219.87237125 -53.75 228.98046875 C-57.92243959 236.1052819 -61.98495244 243.28546141 -66 250.5 C-71.13056299 259.71898037 -76.38941833 268.85244536 -81.73242188 277.94970703 C-86.67406613 286.38635558 -91.46525126 294.90272996 -96.20703125 303.453125 C-99.68477582 309.7114052 -103.27420542 315.88600465 -107 322 C-110.10987509 320.19748439 -112.96175404 318.34103616 -115.71484375 316.03125 C-116.73336426 315.18300659 -116.73336426 315.18300659 -117.77246094 314.31762695 C-118.48692383 313.71781006 -119.20138672 313.11799316 -119.9375 312.5 C-125.3155539 308.02349298 -130.72248745 303.60321296 -136.25 299.3125 C-141.31314184 295.37521927 -146.22994564 291.29913065 -151.10205078 287.12866211 C-155.610893 283.2869096 -160.24328981 279.62139727 -164.91455078 275.97998047 C-169.34056429 272.52796049 -173.69957129 269.00273873 -178.03515625 265.4375 C-181.61983943 262.49040869 -185.21378955 259.55493869 -188.8125 256.625 C-189.48667969 256.07553711 -190.16085938 255.52607422 -190.85546875 254.95996094 C-194.23350008 252.21531048 -197.62832518 249.49728219 -201.06640625 246.828125 C-202.02873169 246.08054932 -202.02873169 246.08054932 -203.01049805 245.31787109 C-204.22357718 244.37911272 -205.43973805 243.44431867 -206.65942383 242.51416016 C-209.30801652 240.46650206 -211.12243006 238.8163549 -213 236 C-212.25314941 235.64695801 -211.50629883 235.29391602 -210.73681641 234.93017578 C-207.36410556 233.33285236 -203.99453311 231.72901522 -200.625 230.125 C-199.449375 229.56941406 -198.27375 229.01382813 -197.0625 228.44140625 C-195.94101563 227.90644531 -194.81953125 227.37148437 -193.6640625 226.8203125 C-192.62717285 226.32805176 -191.5902832 225.83579102 -190.52197266 225.32861328 C-187.91887038 224.11622094 -187.91887038 224.11622094 -186 222 C-185.34396322 215.9863295 -186.62100489 211.77890391 -188.80859375 206.20703125 C-190.14759811 202.60269493 -191.20790677 198.94745614 -192.25 195.25 C-194.84942335 186.14418555 -197.97862036 177.23845816 -201.1328125 168.3125 C-201.75528202 166.54169257 -202.3776805 164.77086016 -203 163 C-203.3000293 162.15953125 -203.60005859 161.3190625 -203.90917969 160.453125 C-204.18407227 159.66421875 -204.45896484 158.8753125 -204.7421875 158.0625 C-204.98565918 157.37285156 -205.22913086 156.68320313 -205.47998047 155.97265625 C-206 154 -206 154 -206 150 C-191.57411234 152.81158569 -177.19658125 155.78408136 -162.86206055 159.03173828 C-161.78996338 159.2739209 -160.71786621 159.51610352 -159.61328125 159.765625 C-158.67266846 159.97993164 -157.73205566 160.19423828 -156.76293945 160.41503906 C-152.29258443 161.36148871 -147.8872613 162.15419348 -143.3125 162.25 C-142.56613281 162.27578125 -141.81976563 162.3015625 -141.05078125 162.328125 C-138.33021924 161.89283508 -137.7557286 161.12447022 -136 159 C-134.95673055 156.89420999 -133.9935487 154.74811035 -133.08203125 152.58203125 C-132.68886971 151.65616463 -132.68886971 151.65616463 -132.2877655 150.71159363 C-131.45580789 148.74804813 -130.63404941 146.78041979 -129.8125 144.8125 C-129.24871544 143.47693112 -128.68426959 142.14164119 -128.11914062 140.80664062 C-126.73841806 137.54095704 -125.36680738 134.27153595 -124 131 C-117.8288016 136.23182389 -112.04254082 141.5847519 -106.75390625 147.72265625 C-102.42134667 152.69703414 -97.89740537 157.47831921 -93.34985352 162.25561523 C-89.86293877 165.92788093 -86.42578963 169.62363793 -83.09375 173.4375 C-82.47701416 174.13222412 -81.86027832 174.82694824 -81.22485352 175.54272461 C-80.06108178 176.85782959 -78.91218411 178.1862981 -77.78100586 179.52954102 C-74.84424321 182.8146038 -73.75638408 183.90701477 -69.21875 184.46484375 C-66.12199385 184.19665422 -66.12199385 184.19665422 -64.0625 183 C-61.40353514 177.99488968 -63.22358231 170.89007778 -64.28515625 165.609375 C-64.48943741 164.57582382 -64.48943741 164.57582382 -64.69784546 163.52139282 C-65.14581144 161.26282036 -65.60423574 159.00650327 -66.0625 156.75 C-66.38305791 155.14160103 -66.70278494 153.53303627 -67.02172852 151.92431641 C-67.68341346 148.59048271 -68.34863411 145.25738515 -69.01660156 141.92480469 C-70.5196555 134.413946 -71.9782492 126.89446695 -73.4375 119.375 C-73.72085185 117.91707084 -74.00421783 116.45914443 -74.28759766 115.0012207 C-76.50230657 103.59967255 -78.70504915 92.19579836 -80.89065552 80.78863525 C-81.25338021 78.89746291 -81.6170385 77.00646938 -81.98165894 75.11566162 C-82.48914444 72.4825599 -82.99308118 69.84880309 -83.49609375 67.21484375 C-83.64884766 66.42598282 -83.80160156 65.63712189 -83.95898438 64.82435608 C-84.52680082 61.83442169 -85 59.05115097 -85 56 C-80.26780317 57.71144668 -76.00103827 60.1101689 -71.625 62.5625 C-70.83641602 62.99997559 -70.04783203 63.43745117 -69.23535156 63.88818359 C-65.33607528 66.06654586 -61.48285193 68.29228318 -57.6953125 70.66015625 C-57.02806152 71.07515381 -56.36081055 71.49015137 -55.67333984 71.91772461 C-54.42382151 72.702044 -53.18142265 73.49786412 -51.94775391 74.30688477 C-48.12900278 76.70489506 -45.49013226 77.49467559 -41 77 C-40.01 76.67 -39.02 76.34 -38 76 C-37.28073245 74.01830915 -36.62785587 72.01252117 -36 70 C-34.63151917 67.02233015 -33.10984965 64.125581 -31.59765625 61.21875 C-31.16367523 60.3758139 -30.72969421 59.53287781 -30.28256226 58.66439819 C-28.87963844 55.94097246 -27.47105763 53.22051547 -26.0625 50.5 C-24.14652404 46.7848388 -22.23341378 43.06820464 -20.3203125 39.3515625 C-19.85356613 38.44576447 -19.38681976 37.53996643 -18.90592957 36.60671997 C-14.93364087 28.89105427 -11.0319828 21.14263273 -7.19750977 13.35742188 C-4.94669436 8.80657709 -2.56355826 4.38304518 0 0 Z " fill="#FF0101" transform="translate(224,5)"/>
<path d="M0 0 C0.66 0 1.32 0 2 0 C2.2902002 0.54076172 2.58040039 1.08152344 2.87939453 1.63867188 C9.2573623 13.49518227 15.82019287 25.21723623 22.64501953 36.82226562 C26.85623025 43.99803043 30.95532557 51.22920274 35 58.5 C39.57555915 66.72208697 44.23582598 74.88574604 49 83 C53.80091308 91.17901011 58.50501667 99.40490751 63.125 107.6875 C67.61938577 115.744378 72.12522708 123.79381097 76.6875 131.8125 C77.18072754 132.68414795 77.67395508 133.5557959 78.18212891 134.45385742 C78.64151855 135.25927979 79.1009082 136.06470215 79.57421875 136.89453125 C79.97213623 137.59425049 80.37005371 138.29396973 80.7800293 139.01489258 C81.99746558 141.07592761 81.99746558 141.07592761 83.65161133 143.1315918 C85 145 85 145 85 147 C59.26 147 33.52 147 7 147 C8.31139114 171.24624479 8.31139114 171.24624479 9.6328125 195.49194336 C9.88671875 200.23937988 9.88671875 200.23937988 10.00537109 202.47950745 C10.08703883 204.00551709 10.17044859 205.53143426 10.25537109 207.05726624 C10.86585234 218.05720495 11.08190229 228.98158246 11 240 C4.4 240 -2.2 240 -9 240 C-9.20615696 224.64578838 -8.3984229 209.39098196 -7.5625 194.0625 C-7.42602674 191.49806843 -7.28995659 188.93361537 -7.15429688 186.36914062 C-6.45716244 173.24490471 -5.72902926 160.12252669 -5 147 C-30.74 147 -56.48 147 -83 147 C-81.54958046 143.37395115 -80.19504581 140.44301231 -78.234375 137.140625 C-77.68136719 136.20283203 -77.12835938 135.26503906 -76.55859375 134.29882812 C-75.96175781 133.29271484 -75.36492187 132.28660156 -74.75 131.25 C-69.72986621 122.72200874 -64.80810358 114.14927512 -60 105.5 C-55.44767685 97.31789009 -50.80751425 89.1968557 -46.0625 81.125 C-40.42400447 71.52944371 -34.99315029 61.83105189 -29.61669922 52.08666992 C-24.85239872 43.47513794 -19.93457724 34.96327593 -14.94873047 26.47851562 C-9.81757768 17.73293801 -4.87251862 8.89178513 0 0 Z " fill="#FF0303" transform="translate(224,228)"/>
</svg>
