<?xml version="1.0" encoding="UTF-8"?>
<svg version="1.1" xmlns="http://www.w3.org/2000/svg" width="500" height="500">
<path d="M0 0 C165 0 330 0 500 0 C500 165 500 330 500 500 C335 500 170 500 0 500 C0 335 0 170 0 0 Z " fill="#FFFEFE" transform="translate(0,0)"/>
<path d="M0 0 C82.5 0 165 0 250 0 C250 129.69 250 259.38 250 393 C167.5 393 85 393 0 393 C0 263.31 0 133.62 0 0 Z " fill="#FEFEFE" transform="translate(125,43)"/>
<path d="M0 0 C82.5 0 165 0 250 0 C250 129.69 250 259.38 250 393 C167.5 393 85 393 0 393 C0 263.31 0 133.62 0 0 Z M237.12109375 6.57421875 C236.44208511 6.738116 235.76307648 6.90201324 235.06349182 7.07087708 C232.85385634 7.60583847 230.6456286 8.146355 228.4375 8.6875 C227.68170654 8.87151367 226.92591309 9.05552734 226.1472168 9.24511719 C217.40321233 11.3746739 208.69262766 13.56356292 200.04663086 16.06518555 C191.52968479 18.48787694 182.89736951 20.4680801 174.28771973 22.52975464 C165.73252608 24.58061001 157.21520808 26.69533774 148.76171875 29.13671875 C140.56815817 31.46885174 132.26812528 33.38195455 123.97558594 35.32641602 C114.22118664 37.63463122 104.68390417 40.31002662 95 43 C82.79 45.97 70.58 48.94 58 52 C58 147.37 58 242.74 58 341 C74.30961702 345.39105074 90.58419903 349.68772579 107 353.625 C127.98312367 358.66094968 127.98312367 358.66094968 137.84375 361.4609375 C148.98363611 364.62196408 160.24451224 367.28630104 171.5 370 C183.63297745 372.92526179 195.74652426 375.856162 207.75662231 379.25553894 C214.9233047 381.27985167 222.1343231 383.07150922 229.375 384.8125 C230.6434375 385.12380859 231.911875 385.43511719 233.21875 385.75585938 C234.43304688 386.04912109 235.64734375 386.34238281 236.8984375 386.64453125 C237.97786621 386.90596924 239.05729492 387.16740723 240.16943359 387.43676758 C243.17283827 388.13010416 243.17283827 388.13010416 247 388 C247 261.61 247 135.22 247 5 C243.47823542 5 240.54836672 5.7440262 237.12109375 6.57421875 Z " fill="#FF0000" transform="translate(125,43)"/>
<path d="M0 0 C3.38121991 2.44598887 4.76936783 3.89296559 5.625 8 C4.76936783 12.10703441 3.38121991 13.55401113 0 16 C-3.5625 16.625 -3.5625 16.625 -7 16 C-10.22456813 13.27151928 -10.91290117 11.62057913 -11.5 7.4375 C-11 4 -11 4 -9.4375 1.5625 C-6.01685857 -0.63021887 -3.99048721 -0.63007693 0 0 Z " fill="#080808" transform="translate(206,230)"/>
</svg>
